<mxfile host="Electron" agent="Mozilla/5.0 (Windows NT 10.0; Win64; x64) AppleWebKit/537.36 (KHTML, like Gecko) draw.io/25.0.2 Chrome/128.0.6613.186 Electron/32.2.5 Safari/537.36" version="25.0.2">
  <diagram name="Page-1" id="nk33O3myFzExoFOTdXr2">
    <mxGraphModel dx="928" dy="553" grid="1" gridSize="10" guides="1" tooltips="1" connect="1" arrows="1" fold="1" page="1" pageScale="1" pageWidth="850" pageHeight="1100" math="0" shadow="0">
      <root>
        <mxCell id="0" />
        <mxCell id="1" parent="0" />
        <mxCell id="iV0AgI1jjQmm0RTRlnqI-1" style="edgeStyle=orthogonalEdgeStyle;rounded=0;orthogonalLoop=1;jettySize=auto;html=1;" edge="1" parent="1" source="UBjv-P3hsI7ne-E2DAJY-2" target="iV0AgI1jjQmm0RTRlnqI-2">
          <mxGeometry relative="1" as="geometry">
            <mxPoint x="400" y="120" as="targetPoint" />
          </mxGeometry>
        </mxCell>
        <mxCell id="UBjv-P3hsI7ne-E2DAJY-2" value="START" style="rounded=1;whiteSpace=wrap;html=1;arcSize=50;" parent="1" vertex="1">
          <mxGeometry x="360" y="40" width="80" height="30" as="geometry" />
        </mxCell>
        <mxCell id="UBjv-P3hsI7ne-E2DAJY-3" value="END" style="rounded=1;whiteSpace=wrap;html=1;arcSize=50;" parent="1" vertex="1">
          <mxGeometry x="360" y="519.83" width="80" height="30" as="geometry" />
        </mxCell>
        <mxCell id="iV0AgI1jjQmm0RTRlnqI-10" value="" style="edgeStyle=orthogonalEdgeStyle;rounded=0;orthogonalLoop=1;jettySize=auto;html=1;" edge="1" parent="1" source="iV0AgI1jjQmm0RTRlnqI-2" target="iV0AgI1jjQmm0RTRlnqI-9">
          <mxGeometry relative="1" as="geometry" />
        </mxCell>
        <mxCell id="iV0AgI1jjQmm0RTRlnqI-2" value="รับค่า 1 ตัวอักษรเก็บไว้ในตัวแปลสตริง" style="shape=parallelogram;perimeter=parallelogramPerimeter;whiteSpace=wrap;html=1;fixedSize=1;" vertex="1" parent="1">
          <mxGeometry x="278.13" y="120" width="243.75" height="40" as="geometry" />
        </mxCell>
        <mxCell id="iV0AgI1jjQmm0RTRlnqI-8" value="" style="edgeStyle=orthogonalEdgeStyle;rounded=0;orthogonalLoop=1;jettySize=auto;html=1;" edge="1" parent="1" source="iV0AgI1jjQmm0RTRlnqI-7" target="UBjv-P3hsI7ne-E2DAJY-3">
          <mxGeometry relative="1" as="geometry" />
        </mxCell>
        <mxCell id="iV0AgI1jjQmm0RTRlnqI-7" value="แสดงตัวอักษรที่รับมาทั้งหมดยกเว้นตัวสุดท้าย" style="shape=parallelogram;perimeter=parallelogramPerimeter;whiteSpace=wrap;html=1;fixedSize=1;" vertex="1" parent="1">
          <mxGeometry x="265" y="409.83" width="270" height="40" as="geometry" />
        </mxCell>
        <mxCell id="iV0AgI1jjQmm0RTRlnqI-11" style="edgeStyle=orthogonalEdgeStyle;rounded=0;orthogonalLoop=1;jettySize=auto;html=1;entryX=1;entryY=0.5;entryDx=0;entryDy=0;" edge="1" parent="1" source="iV0AgI1jjQmm0RTRlnqI-9" target="iV0AgI1jjQmm0RTRlnqI-2">
          <mxGeometry relative="1" as="geometry">
            <Array as="points">
              <mxPoint x="600" y="260" />
              <mxPoint x="600" y="140" />
            </Array>
          </mxGeometry>
        </mxCell>
        <mxCell id="iV0AgI1jjQmm0RTRlnqI-14" value="เท็จ" style="edgeLabel;html=1;align=center;verticalAlign=middle;resizable=0;points=[];" vertex="1" connectable="0" parent="iV0AgI1jjQmm0RTRlnqI-11">
          <mxGeometry x="-0.6446" relative="1" as="geometry">
            <mxPoint x="78" y="-60" as="offset" />
          </mxGeometry>
        </mxCell>
        <mxCell id="iV0AgI1jjQmm0RTRlnqI-12" value="" style="edgeStyle=orthogonalEdgeStyle;rounded=0;orthogonalLoop=1;jettySize=auto;html=1;" edge="1" parent="1" source="iV0AgI1jjQmm0RTRlnqI-9" target="iV0AgI1jjQmm0RTRlnqI-7">
          <mxGeometry relative="1" as="geometry" />
        </mxCell>
        <mxCell id="iV0AgI1jjQmm0RTRlnqI-13" value="จริง" style="edgeLabel;html=1;align=center;verticalAlign=middle;resizable=0;points=[];" vertex="1" connectable="0" parent="iV0AgI1jjQmm0RTRlnqI-12">
          <mxGeometry x="-0.2026" y="-2" relative="1" as="geometry">
            <mxPoint as="offset" />
          </mxGeometry>
        </mxCell>
        <mxCell id="iV0AgI1jjQmm0RTRlnqI-9" value="เมื่อตัวอักษรที่รับมาเท่ากับ &#39;Y&#39; และ &#39;y&#39;" style="rhombus;whiteSpace=wrap;html=1;" vertex="1" parent="1">
          <mxGeometry x="340.01" y="200" width="120" height="120" as="geometry" />
        </mxCell>
      </root>
    </mxGraphModel>
  </diagram>
</mxfile>
